<svg width="40" height="40" viewBox="0 0 40 40" fill="none" xmlns="http://www.w3.org/2000/svg">
  <!-- Background circle with gradient matching your theme -->
  <defs>
    <linearGradient id="bgGradient" x1="0%" y1="0%" x2="100%" y2="100%">
      <stop offset="0%" style="stop-color:#465e70;stop-opacity:1" />
      <stop offset="100%" style="stop-color:#708499;stop-opacity:1" />
    </linearGradient>
    <linearGradient id="codeGradient" x1="0%" y1="0%" x2="100%" y2="100%">
      <stop offset="0%" style="stop-color:#ffffff;stop-opacity:0.95" />
      <stop offset="100%" style="stop-color:#ffffff;stop-opacity:0.8" />
    </linearGradient>
  </defs>

  <!-- Main background circle -->
  <circle cx="20" cy="20" r="18" fill="url(#bgGradient)" stroke="#2e404c" stroke-width="1"/>

  <!-- Traditional coding brackets -->
  <path d="M7 12 L3 16 L3 20 L3 24 L7 28" stroke="url(#codeGradient)" stroke-width="2.2" fill="none" stroke-linecap="round" stroke-linejoin="round"/>
  <path d="M33 12 L37 16 L37 20 L37 24 L33 28" stroke="url(#codeGradient)" stroke-width="2.2" fill="none" stroke-linecap="round" stroke-linejoin="round"/>

  <!-- AI neural network nodes -->
  <circle cx="20" cy="15" r="1.8" fill="url(#codeGradient)"/>
  <circle cx="15" cy="20" r="1.8" fill="url(#codeGradient)"/>
  <circle cx="25" cy="20" r="1.8" fill="url(#codeGradient)"/>
  <circle cx="20" cy="25" r="1.8" fill="url(#codeGradient)"/>

  <!-- Neural connections -->
  <path d="M20 16.8 L15 18.2" stroke="url(#codeGradient)" stroke-width="1.2" opacity="0.8"/>
  <path d="M20 16.8 L25 18.2" stroke="url(#codeGradient)" stroke-width="1.2" opacity="0.8"/>
  <path d="M15 21.8 L20 23.2" stroke="url(#codeGradient)" stroke-width="1.2" opacity="0.8"/>
  <path d="M25 21.8 L20 23.2" stroke="url(#codeGradient)" stroke-width="1.2" opacity="0.8"/>
  <path d="M16.8 19 L23.2 21" stroke="url(#codeGradient)" stroke-width="1" opacity="0.7"/>
  <path d="M23.2 19 L16.8 21" stroke="url(#codeGradient)" stroke-width="1" opacity="0.7"/>

  <!-- Shakespeare-inspired "OR" dilemma symbol -->
  <path d="M18 32 Q20 30 22 32" stroke="url(#codeGradient)" stroke-width="1.5" fill="none" stroke-linecap="round"/>
  <circle cx="20" cy="30" r="0.8" fill="url(#codeGradient)"/>
</svg>